# xmcd
#
# Track frame offsets:
#	150
#	20042
#	41250
#	61923
#	83465
#	100489
#	115648
#	134325
#	153869
#	174483
#	188288
#	208190
#	229487
#	250135
#	267013
#	282174
#	300832
#	320347
#
# Disc length: 4543 seconds
#
# Revision: 3
# Processed by: cddbd v1.5.2PL0 Copyright (c) Steve Scherf et al.
# Submitted via: EasyCDDAExtractor 2010.6.0.0
#
DISCID=e111bd12
DTITLE=Gerson Rufino - Gratidao
DYEAR=2005
DGENRE=Gospel
TTITLE0=Gratidao
TTITLE1=Com Ele
TTITLE2=Adorai
TTITLE3=Senhor Dos Caminhoneiros
TTITLE4=Ele Passou La Em Casa
TTITLE5=Amigos
TTITLE6=Coracao Menino
TTITLE7=Visao Do Vale
TTITLE8=So Lagrimas
TTITLE9=Pentecostes
TTITLE10=Gratidao (Pb)
TTITLE11=Com Ele (Pb)
TTITLE12=Adorai (Pb)
TTITLE13=Ele Passou La Em Casa (Pb)
TTITLE14=Amigos (Pb)
TTITLE15=Coracao Menino (Pb)
TTITLE16=Visao Do Vale (Pb)
TTITLE17=So Lagrimas (Pb)
EXTD=YEAR: 2005
EXTT0=
EXTT1=
EXTT2=
EXTT3=
EXTT4=
EXTT5=
EXTT6=
EXTT7=
EXTT8=
EXTT9=
EXTT10=
EXTT11=
EXTT12=
EXTT13=
EXTT14=
EXTT15=
EXTT16=
EXTT17=
PLAYORDER=
